<svg xmlns="http://www.w3.org/2000/svg" viewBox="0 0 268.12 213.91"><g id="b1bc785f-16b5-4352-8692-77e37e44a938" data-name="Ebene 2"><g id="aecb8130-5fc0-4907-8bd1-eb06dd81b837" data-name="Ebene 1"><path d="M113,81.84c-10-6.4-20.49-13.11-26.67-23.56A30.48,30.48,0,0,1,81.7,42.1a28.4,28.4,0,0,1,5.12-15C93.41,17.31,104.41,12,115.4,8.79A152.11,152.11,0,0,1,152.67,3.1c25.26-.85,50.64,3.8,74.37,12.35,11,3.95,21.93,9.25,29.61,18.3,7,8.23,10.43,19.16,7.15,29.7-3.07,9.86-11,17.92-20.19,22.27-9.89,4.66-21.46,5.81-32.27,5.44q-3.81-.14-7.59-.57c-1.91-.23-1.9,2.78,0,3,11.4,1.33,23.43.78,34.44-2.61,10.54-3.24,19.89-10,25.4-19.64a33.66,33.66,0,0,0,4.5-15.06,33.28,33.28,0,0,0-3.81-16.48C258.76,29,248.65,21.58,237.84,16.6,226,11.17,213.27,7.49,200.6,4.71A197.66,197.66,0,0,0,160.93,0a166.05,166.05,0,0,0-39.56,4.12c-11.83,2.74-24,7-32.69,15.94a35.87,35.87,0,0,0-8.79,14.54,29.33,29.33,0,0,0,.22,17.13c3.77,12.1,13.5,20.71,23.65,27.63,2.53,1.73,5.12,3.39,7.71,5.05,1.63,1,3.14-1.55,1.51-2.59Z"/><path d="M127.59,38.65V59.06a1.5,1.5,0,0,0,3,0V38.65a1.5,1.5,0,0,0-3,0Z"/><path d="M213.37,49.73,209.19,70c-.39,1.89,2.5,2.69,2.89.8l4.18-20.25c.39-1.89-2.5-2.69-2.89-.8Z"/><path d="M156.91,71.61a12.32,12.32,0,0,0,20.62.75,1.5,1.5,0,0,0-.53-2,1.54,1.54,0,0,0-2.06.53,9.32,9.32,0,0,1-15.44-.75c-1-1.63-3.62-.13-2.59,1.52Z"/><path d="M86.2,129.22a76.23,76.23,0,0,1-16.66,25.59,74.87,74.87,0,0,1-11.8,9.81c-4.5,3-9.66,6.09-15.25,6-10.06-.15-15.76-10.81-18.78-19a80.17,80.17,0,0,1-5-26.41,41.68,41.68,0,0,1,.39-8,11.73,11.73,0,0,1,3.46-7c2.15-1.86,5-2.59,7.62-3.64,4.78-2,10-6.48,7.63-12.18a1.52,1.52,0,0,0-1.69-.69L20.87,95.91l1.85,1.84c1.41-4.44,2.53-9.13,1.88-13.81a14.38,14.38,0,0,0-5.94-10,10.13,10.13,0,0,0-10.2-1c-3.09,1.48-5,4.49-6.13,7.6a40.41,40.41,0,0,0-1.91,11q-.51,7.11-.4,14.23a162.66,162.66,0,0,0,3,28.45,158.6,158.6,0,0,0,8,27.52c3.16,8,6.85,16.31,13.9,21.69a33.88,33.88,0,0,0,21.72,6.44A42.19,42.19,0,0,0,69,182c14.82-10.29,22.9-26.86,29.34-43.17.87-2.19,1.71-4.39,2.56-6.58.69-1.81-2.21-2.59-2.9-.8-6,15.57-12.36,31.76-24.84,43.36a44.82,44.82,0,0,1-19.35,11,34.2,34.2,0,0,1-20.9-1.3c-7.42-3-12.29-9.05-15.72-16.09A135,135,0,0,1,8.38,143.9,158,158,0,0,1,3.44,91.27c.4-5.37,1.11-14.34,7.5-16.08,3.31-.91,6.67,1.13,8.59,3.74,2.43,3.31,2.61,7.64,1.95,11.56A47.79,47.79,0,0,1,19.83,97c-.39,1.21.79,2,1.84,1.85l15.24-2.17-1.69-.69c1,2.29-1,4.74-2.7,6.06-2.08,1.61-4.74,2.27-7.14,3.26a15,15,0,0,0-6.22,4.23,15.27,15.27,0,0,0-2.92,6.77c-1.08,5.76-.62,12,.12,17.75a83.64,83.64,0,0,0,4.38,18.19c3.2,8.76,8.81,19.34,19,21.15,5.87,1,11.53-1.24,16.49-4.2a77.18,77.18,0,0,0,12.94-9.74,80,80,0,0,0,20-29.39c.71-1.8-2.19-2.58-2.89-.8Z"/><path d="M203,93.45a693.25,693.25,0,0,1,44.36,71.26q5.59,10.36,10.8,20.91c.86,1.74,3.45.22,2.6-1.51a673.85,673.85,0,0,0-41.88-72.75q-6.48-9.83-13.29-19.43c-1.11-1.56-3.71-.06-2.59,1.52Z"/><path d="M111.11,82.52c-10.24,14.29-19.17,30.05-24.91,46.7-.63,1.83,2.27,2.62,2.89.8,5.65-16.41,14.53-31.92,24.61-46,1.13-1.57-1.48-3.07-2.59-1.51Z"/><path d="M99,131.63a340,340,0,0,0,9.3,63.71q2.16,8.82,4.79,17.52c.56,1.84,3.46,1.06,2.9-.8a335.82,335.82,0,0,1-12.6-62.31q-.95-9-1.39-18.12c-.1-1.92-3.1-1.93-3,0Z"/><path d="M204.38,129.37l-.86,35.47c-.14,5.67-.3,11.35-.41,17-.09,4.19-.13,8.39-.51,12.57-.43,4.8-1.23,9.83-3.58,14.11-.93,1.7,1.66,3.21,2.59,1.52,4.26-7.76,4.3-17.35,4.46-26,.21-11.46.54-22.92.82-34.38l.49-20.34c.05-1.93-2.95-1.93-3,0Z"/><path d="M204.5,129.58a301.89,301.89,0,0,0,33.05,60.91q5.63,8,11.76,15.6c1.21,1.51,3.32-.63,2.12-2.12a298.19,298.19,0,0,1-36.29-57.61q-4.15-8.66-7.75-17.58c-.71-1.77-3.61-1-2.89.8Z"/></g></g></svg>